<?xml version="1.0" encoding="UTF-8" standalone="no"?>
<svg
   xmlns:dc="http://purl.org/dc/elements/1.1/"
   xmlns:cc="http://creativecommons.org/ns#"
   xmlns:rdf="http://www.w3.org/1999/02/22-rdf-syntax-ns#"
   xmlns:svg="http://www.w3.org/2000/svg"
   xmlns="http://www.w3.org/2000/svg"
   xmlns:xlink="http://www.w3.org/1999/xlink"
   xmlns:sodipodi="http://sodipodi.sourceforge.net/DTD/sodipodi-0.dtd"
   xmlns:inkscape="http://www.inkscape.org/namespaces/inkscape"
   inkscape:version="1.0 (4035a4fb49, 2020-05-01)"
   sodipodi:docname="favicon.svg"
   id="svg8"
   version="1.1"
   preserveAspectRatio="xMinYMin meet"
   viewBox="0 0 256 249"
   height="2432"
   width="2500">
  <metadata
     id="metadata14">
    <rdf:RDF>
      <cc:Work
         rdf:about="">
        <dc:format>image/svg+xml</dc:format>
        <dc:type
           rdf:resource="http://purl.org/dc/dcmitype/StillImage" />
      </cc:Work>
    </rdf:RDF>
  </metadata>
  <defs
     id="defs12">
    <linearGradient
       id="linearGradient878"
       inkscape:collect="always">
      <stop
         id="stop874"
         offset="0"
         style="stop-color:#30e1b7;stop-opacity:1" />
      <stop
         id="stop876"
         offset="1"
         style="stop-color:#e1ba30;stop-opacity:1" />
    </linearGradient>
    <linearGradient
       inkscape:collect="always"
       id="linearGradient843-6-7">
      <stop
         style="stop-color:#161614;stop-opacity:1;"
         offset="0"
         id="stop867" />
      <stop
         style="stop-color:#161614;stop-opacity:0;"
         offset="1"
         id="stop869" />
    </linearGradient>
    <linearGradient
       gradientUnits="userSpaceOnUse"
       y2="124.357"
       x2="255.009"
       y1="124.357"
       x1="0"
       id="linearGradient845"
       xlink:href="#linearGradient843-6-7"
       inkscape:collect="always" />
    <linearGradient
       gradientTransform="scale(9.765625)"
       y2="249.48846"
       x2="259.15244"
       y1="0.88290399"
       x1="0.82868522"
       gradientUnits="userSpaceOnUse"
       id="linearGradient872"
       xlink:href="#linearGradient878"
       inkscape:collect="always" />
  </defs>
  <sodipodi:namedview
     inkscape:current-layer="g6"
     inkscape:window-maximized="1"
     inkscape:window-y="-8"
     inkscape:window-x="1912"
     inkscape:cy="1110.7826"
     inkscape:cx="969.22185"
     inkscape:zoom="0.17475329"
     inkscape:snap-global="true"
     inkscape:snap-bbox="false"
     showgrid="false"
     id="namedview10"
     inkscape:window-height="1017"
     inkscape:window-width="1920"
     inkscape:pageshadow="2"
     inkscape:pageopacity="0"
     guidetolerance="10"
     gridtolerance="10"
     objecttolerance="10"
     borderopacity="1"
     bordercolor="#666666"
     pagecolor="#ffffff" />
  <g
     style="fill-opacity:1.0;fill:url(#linearGradient845)"
     id="g6"
     fill="#161614">
    <path
       transform="scale(0.1024)"
       d="M 1245.166 0 C 557.56836 0 0 557.4707 0 1245.166 C 0 1795.3223 356.77734 2262.0605 851.52344 2426.709 C 913.75 2438.2324 936.60156 2399.6973 936.60156 2366.8066 C 936.60156 2337.1191 935.43945 2239.0234 934.91211 2134.9805 C 588.49609 2210.3027 515.40039 1988.0664 515.40039 1988.0664 C 458.75977 1844.1406 377.14844 1805.8789 377.14844 1805.8789 C 264.17969 1728.5938 385.66406 1730.1758 385.66406 1730.1758 C 510.70312 1738.9648 576.54297 1858.4961 576.54297 1858.4961 C 687.59766 2048.8574 867.83203 1993.8184 938.88672 1962.0117 C 950.05859 1881.5234 982.33398 1826.6016 1017.9395 1795.5078 C 741.37695 1764.0137 450.63477 1657.2461 450.63477 1180.1367 C 450.63477 1044.1992 499.27734 933.11523 578.93555 845.91797 C 566.00586 814.55078 523.38867 687.91016 590.99609 516.39648 C 590.99609 516.39648 695.55664 482.92969 933.50586 644.0332 C 1032.8223 616.43555 1139.3457 602.60742 1245.166 602.13867 C 1350.9863 602.60742 1457.5879 616.43555 1557.0996 644.0332 C 1794.7656 482.92969 1899.1797 516.39648 1899.1797 516.39648 C 1966.9531 687.91016 1924.3164 814.55078 1911.3867 845.91797 C 1991.2207 933.11523 2039.5312 1044.1895 2039.5312 1180.1367 C 2039.5312 1658.3789 1748.2422 1763.6914 1470.9766 1794.5117 C 1515.6348 1833.1543 1555.4297 1908.9355 1555.4297 2025.0977 C 1555.4297 2191.6992 1553.9844 2325.791 1553.9844 2366.8066 C 1553.9844 2399.9414 1576.3965 2438.7695 1639.5215 2426.543 C 2133.9941 2261.709 2490.3223 1795.1367 2490.3223 1245.166 C 2490.3223 557.4707 1932.832 1.5158245e-13 1245.166 0 z M 445.24414 1752.6562 C 439.9522 1752.6923 435.51636 1754.8779 433.83789 1758.8574 C 430.9082 1765.0684 435.98633 1773.5059 445.01953 1777.5684 C 453.87695 1781.8066 463.62305 1779.9512 466.35742 1773.7695 C 469.49219 1767.5586 464.33594 1759.043 455.2832 1754.9902 C 451.90308 1753.3862 448.4193 1752.6346 445.24414 1752.6562 z M 507.15625 1793.9023 C 503.84954 1793.7979 500.8313 1794.7253 498.53516 1796.7871 C 492.50977 1802.3828 494.0332 1813.9844 502.17773 1822.666 C 510.0541 1831.3622 521.65708 1833.9232 527.59766 1828.4277 C 533.80859 1822.8613 532.22656 1811.3281 524.08203 1802.5488 C 518.97949 1797.1167 512.66744 1794.0764 507.15625 1793.9023 z M 549.37695 1855.75 C 546.68246 1855.7348 544.14795 1856.4328 541.97266 1857.9297 C 534.17969 1863.252 534.17969 1876.5332 541.80664 1887.5977 C 549.51172 1898.6719 561.99219 1903.6426 569.62891 1898.3398 L 569.61914 1898.3496 C 577.42188 1892.9199 577.42188 1879.6387 569.80469 1868.3789 C 564.18945 1860.4825 556.26288 1855.7889 549.37695 1855.75 z M 613.06641 1938.2305 C 608.49354 1938.212 604.4162 1939.6814 601.61133 1942.7441 C 594.76562 1950.2734 597.80273 1964.5215 608.68164 1974.5605 C 619.32617 1984.834 633.85742 1986.8457 640.68359 1979.3262 L 640.69336 1979.3262 C 647.96875 1971.8848 644.66797 1957.5293 633.85742 1947.5098 C 627.49084 1941.4621 619.74983 1938.2575 613.06641 1938.2305 z M 701.70117 1979.4746 C 691.61435 1979.3634 683.1543 1983.8013 680.95703 1991.1621 C 678.11523 2001.0156 687.33398 2012.4414 701.41602 2016.709 C 715.51758 2020.8496 729.52148 2016.416 732.51953 2006.6699 L 732.5293 2006.6699 C 735.45898 1996.748 726.2207 1985.4102 712.1582 1981.1621 C 708.60596 1980.0537 705.06345 1979.5117 701.70117 1979.4746 z M 810.11719 2000.0977 C 795.23438 2000.3418 783.54492 2008.7793 783.54492 2019.1504 C 783.70117 2029.248 795.74219 2037.5586 810.63477 2037.2363 C 825.43945 2037.0508 837.40234 2028.5352 837.05078 2018.2617 C 837.05078 2008.0566 824.92188 1999.8047 810.11719 2000.0977 z M 915.38086 2000.1074 C 913.6076 2000.1676 911.79199 2000.354 909.95117 2000.6738 C 895.52734 2003.3398 885.03906 2013.623 886.83594 2023.8965 C 888.68164 2033.8281 902.06055 2040.0098 916.51367 2037.373 C 931.21094 2034.6387 941.50391 2024.3457 939.72656 2014.3262 C 938.08594 2005.4138 927.79369 1999.6859 915.38086 2000.1074 z "
       style="fill:url(#linearGradient872);fill-opacity:1;stroke-width:9.76562"
       id="path2" />
  </g>
</svg>
